<svg width="419" height="340" viewBox="0 0 419 340" fill="none" xmlns="http://www.w3.org/2000/svg">
<mask id="mask0_3_28" style="mask-type:alpha" maskUnits="userSpaceOnUse" x="0" y="275" width="419" height="65">
<rect x="419" y="275.694" width="64.1712" height="419" transform="rotate(90 419 275.694)" fill="#D9D9D9"/>
</mask>
<g mask="url(#mask0_3_28)">
<path d="M19.7822 339.865C16.1693 339.865 13.749 336.151 15.208 332.846L160.094 4.62582C160.893 2.81398 162.687 1.645 164.668 1.645H252.374C254.352 1.645 256.144 2.81147 256.945 4.62037L402.3 332.84C403.764 336.146 401.344 339.865 397.728 339.865H309.259C307.216 339.865 305.379 338.623 304.618 336.727L191.704 55.3749C190.386 52.0898 192.805 48.5126 196.344 48.5126H219.243C222.783 48.5126 225.202 52.0898 223.884 55.3749L110.969 336.727C110.209 338.623 108.372 339.865 106.329 339.865H19.7822ZM100.808 274.154C97.3654 274.154 94.9526 270.755 96.088 267.505L117.237 206.962C117.938 204.955 119.831 203.611 121.957 203.611H280.102C282.228 203.611 284.121 204.955 284.822 206.962L305.971 267.505C307.106 270.755 304.694 274.154 301.251 274.154H100.808Z" fill="#006D77"/>
</g>
<mask id="mask1_3_28" style="mask-type:alpha" maskUnits="userSpaceOnUse" x="0" y="0" width="419" height="201">
<rect x="419" y="0.135132" width="200.063" height="419" transform="rotate(90 419 0.135132)" fill="#D9D9D9"/>
</mask>
<g mask="url(#mask1_3_28)">
<g filter="url(#filter0_d_3_28)">
<path d="M19.7822 339.865C16.1693 339.865 13.749 336.151 15.208 332.846L160.094 4.62582C160.893 2.81398 162.687 1.645 164.668 1.645H252.374C254.352 1.645 256.144 2.81147 256.945 4.62037L402.3 332.84C403.764 336.146 401.344 339.865 397.728 339.865H309.259C307.216 339.865 305.379 338.623 304.618 336.727L191.704 55.3749C190.386 52.0898 192.805 48.5126 196.344 48.5126H219.243C222.783 48.5126 225.202 52.0898 223.884 55.3749L110.969 336.727C110.209 338.623 108.372 339.865 106.329 339.865H19.7822ZM100.808 274.154C97.3654 274.154 94.9526 270.755 96.088 267.505L117.237 206.962C117.938 204.955 119.831 203.611 121.957 203.611H280.102C282.228 203.611 284.121 204.955 284.822 206.962L305.971 267.505C307.106 270.755 304.694 274.154 301.251 274.154H100.808Z" fill="#006D77"/>
</g>
</g>
<path fill-rule="evenodd" clip-rule="evenodd" d="M51.693 268.144C48.738 268.144 46.8032 265.05 48.0964 262.394L73.6003 209.997C74.2701 208.621 75.6664 207.748 77.1968 207.748H342.522C344.067 207.748 345.474 208.637 346.136 210.033L370.992 262.43C372.251 265.084 370.315 268.144 367.378 268.144H51.693Z" fill="#D9D9D9" stroke="#006D77"/>
<path d="M152.016 261V226.248H138.256V216.2H178.384V226.248H164.688V261H152.016ZM180.955 261L166.427 216.2H179.483L191.707 254.984H185.115L197.979 216.2H209.627L221.787 254.984H215.451L228.059 216.2H240.155L225.627 261H212.059L201.691 228.04H205.339L194.523 261H180.955ZM254.145 261.896C247.531 261.896 242.369 260.083 238.657 256.456C234.945 252.829 233.089 247.688 233.089 241.032V216.2H245.761V240.648C245.761 244.488 246.507 247.24 248.001 248.904C249.537 250.568 251.627 251.4 254.273 251.4C256.918 251.4 258.987 250.568 260.481 248.904C261.974 247.24 262.721 244.488 262.721 240.648V216.2H275.201V241.032C275.201 247.688 273.345 252.829 269.633 256.456C265.921 260.083 260.758 261.896 254.145 261.896Z" fill="#202828"/>
<defs>
<filter id="filter0_d_3_28" x="10.7766" y="1.645" width="395.957" height="346.22" filterUnits="userSpaceOnUse" color-interpolation-filters="sRGB">
<feFlood flood-opacity="0" result="BackgroundImageFix"/>
<feColorMatrix in="SourceAlpha" type="matrix" values="0 0 0 0 0 0 0 0 0 0 0 0 0 0 0 0 0 0 127 0" result="hardAlpha"/>
<feOffset dy="4"/>
<feGaussianBlur stdDeviation="2"/>
<feComposite in2="hardAlpha" operator="out"/>
<feColorMatrix type="matrix" values="0 0 0 0 0 0 0 0 0 0 0 0 0 0 0 0 0 0 0.25 0"/>
<feBlend mode="normal" in2="BackgroundImageFix" result="effect1_dropShadow_3_28"/>
<feBlend mode="normal" in="SourceGraphic" in2="effect1_dropShadow_3_28" result="shape"/>
</filter>
</defs>
</svg>
